# xmcd
# 
# Track frame offsets:
#     150
#     22385
#     38484
#     53290
#     71770
#     90176
#     105400
#     126427
#     150414
#     172855
#     193345
# 
# Disc length: 2847
# 
# Revision: 1
# Processed by: cddbd v1.5.2PL0 Copyright (c) Steve Scherf et al.
# Submitted via: BonkEnc v1.0.5
# 
DISCID=820b1d0b
DTITLE=Marcos Antônio - A porta se abriu
DYEAR=0
DGENRE=
TTITLE0=Jesus Abriu a porta
TTITLE1=Nem tudo se acabou
TTITLE2=Jesus nao e dinheiro
TTITLE3=Conversa a dois
TTITLE4=Amo você
TTITLE5=Rasga-me por dentro
TTITLE6=Uma chance
TTITLE7=O escolhido
TTITLE8=O inimigo fugirá
TTITLE9=Anjo sem asas
TTITLE10=Ligado
EXTD=
EXTT0=
EXTT1=
EXTT2=
EXTT3=
EXTT4=
EXTT5=
EXTT6=
EXTT7=
EXTT8=
EXTT9=
EXTT10=
PLAYORDER=
